<svg width="22" height="13" fill="none" xmlns="http://www.w3.org/2000/svg"><path d="M10.142 12.574l-9.79-9.79A1.195 1.195 0 010 1.933c0-.323.125-.625.351-.851L1.072.36c.47-.47 1.233-.47 1.702 0l8.221 8.22 8.23-8.23a1.2 1.2 0 01.851-.351c.323 0 .625.125.852.351l.72.721c.227.227.352.53.352.851 0 .323-.125.625-.352.851l-9.798 9.8a1.196 1.196 0 01-.854.35 1.188 1.188 0 01-.854-.35z" fill="url(#paint0_linear_1604_41328)"/><defs><linearGradient id="paint0_linear_1604_41328" x1="-3.869" y1="10.5" x2="-2.579" y2="-10.555" gradientUnits="userSpaceOnUse"><stop stop-color="#7FD9FF"/><stop offset="1" stop-color="#923CFF"/></linearGradient></defs></svg>