<svg width="18" height="20" fill="none" xmlns="http://www.w3.org/2000/svg"><path d="M7.385 8.464c-.538 0-.963.473-.963 1.049s.434 1.049.963 1.049c.539 0 .964-.473.964-1.05.01-.575-.425-1.048-.964-1.048zm3.448 0c-.538 0-.963.473-.963 1.049s.434 1.049.963 1.049c.539 0 .964-.473.964-1.05 0-.575-.425-1.048-.964-1.048z" fill="#fff"/><path d="M15.423.54H2.765A1.94 1.94 0 00.828 2.484v12.772c0 1.077.87 1.946 1.937 1.946h10.712l-.5-1.748 1.208 1.124 1.143 1.058 2.031 1.795V2.485A1.941 1.941 0 0015.423.539zm-3.646 12.336s-.34-.406-.624-.765c1.237-.35 1.71-1.124 1.71-1.124a5.401 5.401 0 01-1.086.557c-.473.198-.926.33-1.37.406a6.617 6.617 0 01-2.447-.01 7.932 7.932 0 01-1.388-.405 5.526 5.526 0 01-.69-.322c-.028-.018-.057-.028-.085-.047a.13.13 0 01-.038-.028c-.17-.095-.264-.16-.264-.16s.453.755 1.653 1.114c-.284.359-.633.784-.633.784-2.088-.066-2.881-1.436-2.881-1.436 0-3.042 1.36-5.507 1.36-5.507 1.36-1.02 2.654-.992 2.654-.992l.095.113c-1.7.492-2.485 1.238-2.485 1.238s.208-.113.558-.274c1.01-.444 1.814-.567 2.144-.595.057-.01.104-.019.16-.019a7.7 7.7 0 014.752.888s-.746-.709-2.352-1.2l.132-.15s1.295-.03 2.655.991c0 0 1.36 2.465 1.36 5.507 0 0-.803 1.37-2.89 1.436z" fill="#fff"/></svg>