<svg width="20" height="20" fill="none" xmlns="http://www.w3.org/2000/svg"><path d="M10.232 2.356c2.524 0 2.822.011 3.815.056.922.04 1.42.195 1.753.324.439.17.756.377 1.085.705.332.332.535.646.704 1.085.13.332.285.834.325 1.753.044.996.055 1.295.055 3.815 0 2.524-.01 2.823-.055 3.816-.04.922-.195 1.42-.325 1.752-.17.44-.376.757-.704 1.085a2.906 2.906 0 01-1.085.705c-.332.13-.834.284-1.753.325-.996.044-1.295.055-3.815.055-2.524 0-2.823-.01-3.816-.055-.922-.04-1.42-.196-1.753-.325a2.922 2.922 0 01-1.085-.705 2.906 2.906 0 01-.704-1.085c-.13-.332-.284-.833-.325-1.752-.044-.996-.055-1.295-.055-3.816 0-2.524.01-2.823.055-3.815.04-.923.196-1.42.325-1.753.17-.439.376-.756.704-1.085a2.906 2.906 0 011.085-.705c.332-.129.834-.284 1.753-.324.993-.045 1.292-.056 3.816-.056zm0-1.7c-2.565 0-2.886.01-3.893.055-1.004.044-1.694.206-2.292.439a4.61 4.61 0 00-1.675 1.092A4.629 4.629 0 001.28 3.914C1.047 4.515.885 5.2.84 6.205.797 7.216.786 7.537.786 10.102c0 2.564.011 2.885.056 3.893.044 1.003.206 1.693.439 2.291a4.61 4.61 0 001.092 1.675 4.618 4.618 0 001.671 1.089c.602.232 1.288.395 2.292.44 1.007.043 1.328.054 3.893.054 2.564 0 2.886-.01 3.893-.055 1.003-.044 1.694-.207 2.291-.439a4.618 4.618 0 001.672-1.089 4.618 4.618 0 001.088-1.671c.233-.602.395-1.288.44-2.292.044-1.007.055-1.328.055-3.893 0-2.564-.011-2.885-.055-3.893-.045-1.003-.207-1.693-.44-2.291a4.425 4.425 0 00-1.08-1.679 4.618 4.618 0 00-1.672-1.089C15.818.921 15.132.76 14.128.714c-1.01-.048-1.332-.059-3.896-.059z" fill="#fff"/><path d="M10.231 5.249a4.854 4.854 0 000 9.705 4.854 4.854 0 000-9.705zm0 8a3.148 3.148 0 11.001-6.296 3.148 3.148 0 010 6.296zm6.179-8.192a1.133 1.133 0 11-2.266 0 1.133 1.133 0 012.266 0z" fill="#fff"/></svg>