<svg width="20" height="20" fill="none" xmlns="http://www.w3.org/2000/svg"><path d="M18.186.655h-16.1c-.771 0-1.395.61-1.395 1.362v16.166c0 .753.624 1.365 1.395 1.365h16.1c.77 0 1.398-.612 1.398-1.361V2.016c0-.753-.627-1.362-1.398-1.362zm-11.89 16.1H3.493V7.736h2.805v9.019zM4.895 6.508a1.624 1.624 0 11-.005-3.25 1.624 1.624 0 01.005 3.25zm11.897 10.247h-2.8V12.37c0-1.044-.02-2.391-1.458-2.391-1.458 0-1.68 1.14-1.68 2.317v4.458H8.058V7.736h2.686V8.97h.037c.373-.709 1.288-1.458 2.65-1.458 2.837 0 3.36 1.867 3.36 4.295v4.949z" fill="#fff"/></svg>