<svg width="20" height="16" fill="none" xmlns="http://www.w3.org/2000/svg"><path d="M6.819 15.777c7.127 0 11.027-5.907 11.027-11.027 0-.166-.004-.336-.011-.502a7.87 7.87 0 001.933-2.007 7.642 7.642 0 01-2.225.609A3.897 3.897 0 0019.247.706a7.79 7.79 0 01-2.46.941 3.881 3.881 0 00-6.608 3.534 11.009 11.009 0 01-7.987-4.047 3.88 3.88 0 001.2 5.173 3.88 3.88 0 01-1.757-.484v.048a3.875 3.875 0 003.11 3.801 3.853 3.853 0 01-1.749.066 3.884 3.884 0 003.62 2.694 7.775 7.775 0 01-5.741 1.604 10.996 10.996 0 005.944 1.74z" fill="#fff"/></svg>