<svg width="117" height="29" fill="none" xmlns="http://www.w3.org/2000/svg"><mask id="a" style="mask-type:alpha" maskUnits="userSpaceOnUse" x="0" y="0" width="117" height="29"><path fill="#C4C4C4" d="M0 0h117v29H0z"/></mask><g mask="url(#a)"><path d="M38.05 4.945c0 .78-.2 1.462-.695 1.95-.596.585-1.29.877-2.184.877-.893 0-1.588-.292-2.184-.877-.596-.585-.893-1.268-.893-2.145 0-.878.297-1.56.893-2.145.596-.585 1.29-.878 2.184-.878.397 0 .794.098 1.19.293.398.195.696.39.894.682l-.496.488c-.397-.488-.893-.683-1.588-.683-.596 0-1.191.195-1.588.683-.497.39-.695.975-.695 1.657 0 .683.198 1.268.695 1.658.496.39.992.682 1.588.682.695 0 1.19-.195 1.687-.682a1.6 1.6 0 00.497-1.17H35.17v-.683h2.878v.293zm4.565-2.437h-2.68V4.36h2.481v.683h-2.481v1.852h2.68v.78H39.14v-5.85h3.474v.683zm3.275 5.167h-.794V2.508h-1.688v-.683h4.17v.683H45.89v5.167zm4.569 0v-5.85h.794v5.85h-.794zm4.167 0h-.794V2.508h-1.688v-.683h4.07v.683h-1.687v5.167h.099zm9.43-.78c-.596.585-1.29.877-2.184.877-.893 0-1.588-.292-2.184-.877-.595-.585-.893-1.268-.893-2.145 0-.878.298-1.56.893-2.145.596-.585 1.29-.878 2.184-.878.893 0 1.588.293 2.184.878.595.585.893 1.267.893 2.145 0 .877-.298 1.56-.893 2.145zm-3.772-.488c.397.39.992.683 1.588.683.596 0 1.191-.195 1.588-.683.397-.39.695-.975.695-1.657 0-.683-.199-1.268-.695-1.658-.397-.39-.992-.682-1.588-.682-.596 0-1.191.195-1.588.682-.397.39-.695.975-.695 1.658 0 .682.199 1.267.695 1.657zm5.756 1.268v-5.85h.892l2.879 4.583V1.825h.794v5.85h-.794l-3.077-4.777v4.777h-.695z" fill="#fff" stroke="#fff" stroke-width=".059" stroke-miterlimit="10"/><path d="M58.595 16.255c-2.382 0-4.268 1.755-4.268 4.193 0 2.34 1.886 4.192 4.268 4.192 2.382 0 4.268-1.755 4.268-4.192 0-2.535-1.886-4.193-4.268-4.193zm0 6.63c-1.29 0-2.382-1.072-2.382-2.535 0-1.462 1.092-2.535 2.382-2.535s2.382.975 2.382 2.535c0 1.463-1.092 2.535-2.382 2.535zm-9.231-6.63c-2.382 0-4.268 1.755-4.268 4.193 0 2.34 1.886 4.192 4.268 4.192 2.382 0 4.268-1.755 4.268-4.192 0-2.535-1.886-4.193-4.268-4.193zm0 6.63c-1.29 0-2.382-1.072-2.382-2.535 0-1.462 1.092-2.535 2.382-2.535s2.382.975 2.382 2.535c0 1.463-1.092 2.535-2.382 2.535zm-11.018-5.362v1.755h4.268c-.1.975-.496 1.755-.992 2.242-.596.585-1.589 1.268-3.276 1.268-2.68 0-4.665-2.048-4.665-4.68a4.64 4.64 0 014.665-4.68c1.39 0 2.482.585 3.276 1.267l1.29-1.267c-1.092-.975-2.481-1.755-4.467-1.755-3.573 0-6.65 2.925-6.65 6.435s3.077 6.435 6.65 6.435c1.986 0 3.375-.585 4.566-1.853 1.191-1.17 1.588-2.827 1.588-4.095 0-.39 0-.78-.099-1.072h-6.154zm45.064 1.365c-.397-.975-1.39-2.633-3.573-2.633-2.184 0-3.97 1.658-3.97 4.193 0 2.34 1.786 4.192 4.168 4.192 1.886 0 3.077-1.17 3.474-1.852l-1.39-.975c-.496.682-1.091 1.17-2.084 1.17-.993 0-1.588-.39-2.084-1.268l5.657-2.34-.198-.487zm-5.757 1.365c0-1.56 1.29-2.438 2.183-2.438.695 0 1.39.39 1.589.878l-3.772 1.56zm-4.665 3.997h1.886V12.063h-1.886V24.25zm-2.978-7.117c-.497-.488-1.29-.975-2.283-.975-2.085 0-4.07 1.852-4.07 4.192a4.073 4.073 0 004.07 4.095c.992 0 1.786-.487 2.183-.975h.1v.585c0 1.56-.894 2.438-2.283 2.438-1.092 0-1.886-.78-2.085-1.463l-1.588.683c.496 1.072 1.688 2.437 3.772 2.437 2.184 0 3.97-1.267 3.97-4.29v-7.41H70.01v.683zm-2.184 5.752c-1.29 0-2.382-1.072-2.382-2.535 0-1.462 1.092-2.535 2.382-2.535s2.283 1.073 2.283 2.535c0 1.463-.992 2.535-2.283 2.535zm24.22-10.822h-4.467V24.25h1.886v-4.582h2.58c2.085 0 4.07-1.463 4.07-3.803s-1.985-3.802-4.07-3.802zm.099 5.85h-2.68V13.72h2.68c1.39 0 2.183 1.17 2.183 2.048-.099 1.072-.893 2.145-2.183 2.145zm11.414-1.755c-1.389 0-2.779.585-3.275 1.852l1.687.683c.397-.683.993-.878 1.688-.878.992 0 1.886.585 1.985 1.56v.098c-.298-.195-1.092-.488-1.886-.488-1.787 0-3.573.975-3.573 2.73 0 1.658 1.489 2.73 3.077 2.73 1.29 0 1.886-.585 2.382-1.17h.099v.975h1.787v-4.68c-.199-2.145-1.886-3.412-3.971-3.412zm-.198 6.727c-.596 0-1.489-.292-1.489-1.072 0-.975 1.092-1.268 1.985-1.268.794 0 1.191.195 1.688.39-.199 1.17-1.191 1.95-2.184 1.95zm10.422-6.435l-2.084 5.265h-.1l-2.183-5.265h-1.985l3.275 7.41-1.886 4.095h1.886l5.062-11.505h-1.985zm-16.675 7.8h1.885V12.063h-1.885V24.25z" fill="#fff"/><path d="M1.322 2.312c-.297.292-.496.78-.496 1.365v21.547c0 .585.199 1.073.496 1.365l.1.098 12.308-12.09v-.195L1.322 2.312z" fill="url(#paint0_linear_1334:23563)"/><path d="M17.796 18.692l-4.07-3.998v-.292l4.07-3.998.1.098 4.863 2.73c1.39.78 1.39 2.047 0 2.827l-4.963 2.633z" fill="url(#paint1_linear_1334:23563)"/><path d="M17.899 18.594l-4.17-4.095L1.323 26.687c.497.487 1.191.487 2.085.097l14.492-8.19z" fill="url(#paint2_linear_1334:23563)"/><path d="M17.899 10.405L3.407 2.312c-.894-.488-1.588-.39-2.085.097L13.73 14.5l4.169-4.095z" fill="url(#paint3_linear_1334:23563)"/><path opacity=".2" d="M17.801 18.497L3.41 26.492c-.794.488-1.49.39-1.986 0l-.099.098.1.097c.496.39 1.19.488 1.985 0l14.392-8.19z" fill="#000"/><path opacity=".12" d="M1.323 26.492c-.298-.293-.397-.78-.397-1.365v.098c0 .584.198 1.072.496 1.364v-.097h-.1zm21.441-10.725l-4.963 2.73.099.097 4.864-2.73c.695-.39.992-.877.992-1.365 0 .488-.397.878-.992 1.268z" fill="#000"/><path opacity=".25" d="M3.407 2.41l19.356 10.822c.595.39.992.78.992 1.267 0-.487-.297-.975-.992-1.365L3.407 2.312C2.017 1.532.926 2.214.926 3.774v.098c0-1.56 1.092-2.243 2.481-1.463z" fill="#fff"/></g><defs><linearGradient id="paint0_linear_1334:23563" x1="12.638" y1="3.491" x2="-3.722" y2="20.147" gradientUnits="userSpaceOnUse"><stop stop-color="#00A0FF"/><stop offset=".007" stop-color="#00A1FF"/><stop offset=".26" stop-color="#00BEFF"/><stop offset=".512" stop-color="#00D2FF"/><stop offset=".76" stop-color="#00DFFF"/><stop offset="1" stop-color="#00E3FF"/></linearGradient><linearGradient id="paint1_linear_1334:23563" x1="24.58" y1="14.501" x2=".562" y2="14.501" gradientUnits="userSpaceOnUse"><stop stop-color="#FFE000"/><stop offset=".409" stop-color="#FFBD00"/><stop offset=".775" stop-color="orange"/><stop offset="1" stop-color="#FF9C00"/></linearGradient><linearGradient id="paint2_linear_1334:23563" x1="15.642" y1="16.738" x2="-6.543" y2="39.324" gradientUnits="userSpaceOnUse"><stop stop-color="#FF3A44"/><stop offset="1" stop-color="#C31162"/></linearGradient><linearGradient id="paint3_linear_1334:23563" x1="-1.757" y1="-4.829" x2="8.149" y2="5.257" gradientUnits="userSpaceOnUse"><stop stop-color="#32A071"/><stop offset=".069" stop-color="#2DA771"/><stop offset=".476" stop-color="#15CF74"/><stop offset=".801" stop-color="#06E775"/><stop offset="1" stop-color="#00F076"/></linearGradient></defs></svg>