<svg width="112" height="28" fill="none" xmlns="http://www.w3.org/2000/svg"><path d="M16.736 13.331a5.37 5.37 0 01.722-2.617 5.489 5.489 0 011.917-1.95 5.64 5.64 0 00-1.95-1.706 5.751 5.751 0 00-2.52-.668c-1.88-.194-3.703 1.106-4.661 1.106-.977 0-2.452-1.086-4.04-1.054a6.03 6.03 0 00-2.908.852 5.895 5.895 0 00-2.102 2.148C-.97 13.126.644 18.54 2.72 21.516c1.038 1.458 2.25 3.086 3.838 3.029 1.553-.064 2.133-.973 4.008-.973 1.858 0 2.402.973 4.021.936 1.667-.027 2.717-1.464 3.719-2.936a11.969 11.969 0 001.7-3.402 5.334 5.334 0 01-2.376-1.936 5.194 5.194 0 01-.893-2.903zm-3.061-8.899a5.297 5.297 0 001.248-3.84 5.585 5.585 0 00-3.592 1.826 5.078 5.078 0 00-1.015 1.724 5.015 5.015 0 00-.266 1.974 4.66 4.66 0 002.01-.433 4.58 4.58 0 001.615-1.25zM36.37 20.854h-5.301l-1.273 3.692H27.55l5.02-13.66h2.333l5.02 13.66H37.64l-1.272-3.692zm-4.752-1.704h4.201l-2.071-5.992h-.058l-2.072 5.992zm19.149.418c0 3.094-1.686 5.083-4.231 5.083a3.487 3.487 0 01-1.85-.421 3.407 3.407 0 01-1.34-1.322h-.048v4.933h-2.081V14.587h2.014v1.657h.038a3.567 3.567 0 011.367-1.318 3.648 3.648 0 011.862-.443c2.573 0 4.269 1.998 4.269 5.085zm-2.14 0c0-2.017-1.06-3.342-2.678-3.342-1.59 0-2.66 1.353-2.66 3.342 0 2.006 1.07 3.35 2.66 3.35 1.618 0 2.679-1.316 2.679-3.35zm13.298-.001c0 3.095-1.686 5.084-4.23 5.084a3.487 3.487 0 01-1.85-.421 3.407 3.407 0 01-1.34-1.322h-.049v4.933h-2.081V14.587h2.014v1.657h.039a3.567 3.567 0 011.366-1.318 3.648 3.648 0 011.862-.443c2.573 0 4.27 1.998 4.27 5.084zm-2.139 0c0-2.016-1.06-3.341-2.68-3.341-1.59 0-2.659 1.353-2.659 3.341 0 2.007 1.07 3.351 2.66 3.351 1.618 0 2.68-1.316 2.68-3.35zM69.3 20.74c.154 1.355 1.494 2.244 3.325 2.244 1.754 0 3.016-.89 3.016-2.11 0-1.06-.762-1.696-2.564-2.13l-1.802-.427c-2.553-.606-3.739-1.78-3.739-3.683 0-2.357 2.091-3.975 5.06-3.975 2.938 0 4.953 1.618 5.02 3.975h-2.1c-.126-1.363-1.273-2.186-2.95-2.186-1.676 0-2.823.833-2.823 2.045 0 .965.733 1.534 2.525 1.969l1.532.37c2.853.662 4.039 1.788 4.039 3.786 0 2.555-2.073 4.156-5.369 4.156-3.083 0-5.166-1.563-5.3-4.034h2.13zm13.033-8.51v2.357h1.927v1.619h-1.927v5.49c0 .853.386 1.25 1.233 1.25.229-.004.457-.02.685-.047v1.61c-.381.07-.769.1-1.156.094-2.053 0-2.853-.758-2.853-2.689v-5.708h-1.474v-1.62h1.474V12.23h2.09zm3.04 7.337c0-3.133 1.879-5.102 4.808-5.102 2.94 0 4.81 1.969 4.81 5.102 0 3.142-1.86 5.103-4.81 5.103-2.948 0-4.808-1.96-4.808-5.103zm7.498 0c0-2.15-1.003-3.418-2.69-3.418-1.686 0-2.688 1.278-2.688 3.418 0 2.158 1.002 3.417 2.688 3.417 1.687 0 2.69-1.259 2.69-3.417zm3.832-4.979h1.985v1.695h.048c.134-.53.45-.998.894-1.325.444-.328.99-.495 1.545-.475.24 0 .479.025.713.077v1.912a2.96 2.96 0 00-.935-.124 2.13 2.13 0 00-.884.154c-.28.113-.531.284-.737.502a2.026 2.026 0 00-.548 1.636v5.907h-2.08v-9.96zm14.784 7.033c-.28 1.808-2.072 3.049-4.365 3.049-2.95 0-4.78-1.942-4.78-5.056 0-3.123 1.84-5.15 4.692-5.15 2.805 0 4.569 1.893 4.569 4.913v.7h-7.16v.124a2.58 2.58 0 00.715 2.015c.258.267.571.477.918.616.347.139.72.203 1.094.19.492.045.985-.067 1.407-.32.422-.252.749-.631.934-1.081h1.976zm-7.035-2.972h5.069a2.354 2.354 0 00-.681-1.798 2.452 2.452 0 00-1.806-.73 2.604 2.604 0 00-1.827.735 2.49 2.49 0 00-.755 1.792zM31.357.604c.436-.03.874.034 1.282.19a2.96 2.96 0 011.076.71c.3.312.527.685.663 1.094.136.408.178.84.123 1.267 0 2.097-1.154 3.302-3.144 3.302h-2.414V.604h2.414zM29.98 6.239h1.26c.312.018.624-.032.913-.147.29-.115.55-.292.76-.518a2.027 2.027 0 00.53-1.695 2.034 2.034 0 00-.538-1.684c-.21-.225-.469-.4-.757-.515a2.14 2.14 0 00-.908-.149h-1.26V6.24zm5.695-1.55a2.307 2.307 0 01.61-1.802c.224-.242.497-.435.802-.568a2.426 2.426 0 012.734.568 2.307 2.307 0 01.61 1.802 2.308 2.308 0 01-.608 1.804 2.387 2.387 0 01-.802.569 2.426 2.426 0 01-2.737-.569 2.308 2.308 0 01-.609-1.805zm3.733 0c0-1.074-.491-1.702-1.353-1.702-.865 0-1.352.628-1.352 1.702 0 1.082.487 1.705 1.352 1.705.862 0 1.353-.627 1.353-1.705zm7.344 2.479h-1.033L44.677 3.52H44.6l-1.04 3.648h-1.023l-1.39-4.954h1.01l.903 3.78h.074l1.037-3.78h.955l1.036 3.78h.08l.898-3.78h.995l-1.384 4.954zm2.555-4.953h.958V3h.074c.126-.282.339-.52.609-.677.27-.159.583-.23.896-.205a1.667 1.667 0 011.323.509 1.605 1.605 0 01.422 1.333v3.207h-.995v-2.96c0-.796-.352-1.192-1.088-1.192a1.176 1.176 0 00-.896.356 1.133 1.133 0 00-.308.899v2.898h-.995V2.214zM55.174.28h.995v6.888h-.995V.28zm2.38 4.409a2.306 2.306 0 01.112-.965c.105-.31.275-.595.498-.837a2.39 2.39 0 01.802-.568 2.426 2.426 0 012.734.568 2.306 2.306 0 01.61 1.802 2.33 2.33 0 01-.608 1.805 2.388 2.388 0 01-.802.568 2.426 2.426 0 01-2.737-.569 2.338 2.338 0 01-.499-.839 2.307 2.307 0 01-.11-.965zm3.732 0c0-1.074-.49-1.702-1.352-1.702-.865 0-1.352.628-1.352 1.702 0 1.082.487 1.705 1.352 1.705.861 0 1.352-.627 1.352-1.705zm2.071 1.078c0-.892.676-1.406 1.876-1.479l1.366-.077v-.428c0-.523-.352-.818-1.033-.818-.555 0-.94.2-1.05.55h-.964c.102-.85.917-1.396 2.06-1.396 1.264 0 1.978.618 1.978 1.664v3.384h-.959v-.696h-.078a1.68 1.68 0 01-.65.59 1.722 1.722 0 01-.865.188 1.549 1.549 0 01-1.175-.375 1.496 1.496 0 01-.506-1.107zm3.242-.424V4.93l-1.232.078c-.694.045-1.009.277-1.009.714 0 .446.394.705.935.705a1.209 1.209 0 00.887-.27 1.171 1.171 0 00.419-.813zm2.299-.654c0-1.565.82-2.557 2.094-2.557.315-.014.627.06.901.214s.498.381.645.655h.074V.281h.995v6.887h-.953v-.783h-.079a1.767 1.767 0 01-1.583.864c-1.283 0-2.094-.991-2.094-2.56zm1.028 0c0 1.05.505 1.683 1.348 1.683.838 0 1.357-.642 1.357-1.679 0-1.032-.524-1.683-1.357-1.683-.838 0-1.348.637-1.348 1.679zm7.794 0a2.307 2.307 0 01.61-1.802 2.425 2.425 0 013.535 0 2.307 2.307 0 01.61 1.802c.033.325-.004.654-.109.965-.105.31-.275.597-.498.84a2.389 2.389 0 01-.802.568 2.426 2.426 0 01-2.737-.569 2.308 2.308 0 01-.609-1.805zm3.733 0c0-1.074-.492-1.702-1.353-1.702-.865 0-1.352.628-1.352 1.702 0 1.082.487 1.705 1.352 1.705.862 0 1.353-.627 1.353-1.705zm2.361-2.474h.958V3h.075c.126-.282.339-.52.608-.677.27-.159.583-.23.897-.205a1.667 1.667 0 011.323.509 1.603 1.603 0 01.422 1.333v3.207h-.995v-2.96c0-.796-.352-1.192-1.088-1.192a1.176 1.176 0 00-.896.356 1.133 1.133 0 00-.308.899v2.898h-.996V2.214zM93.72.981v1.256h1.093v.823H93.72v2.547c0 .52.218.746.713.746.127 0 .254-.008.38-.022v.814c-.179.031-.36.048-.541.05-1.107 0-1.548-.382-1.548-1.337V3.06h-.8v-.823h.8V.98h.996zM96.17.28h.986v2.73h.079a1.53 1.53 0 01.626-.682c.275-.159.593-.23.911-.205a1.688 1.688 0 011.311.522 1.607 1.607 0 01.426 1.324v3.199h-.996V4.21c0-.791-.375-1.192-1.078-1.192a1.198 1.198 0 00-.932.338 1.155 1.155 0 00-.338.918v2.893h-.995V.28zm10.141 5.55a2.014 2.014 0 01-.827 1.106c-.4.262-.88.378-1.358.327a2.324 2.324 0 01-1.767-.749 2.234 2.234 0 01-.484-.843 2.204 2.204 0 01-.078-.964 2.247 2.247 0 01.561-1.815 2.36 2.36 0 011.764-.773c1.403 0 2.249.941 2.249 2.497v.34h-3.56v.056a1.303 1.303 0 00.352 1.001 1.355 1.355 0 00.99.418c.239.028.48-.014.693-.121.214-.107.39-.274.507-.48h.958zm-3.5-1.596h2.546a1.169 1.169 0 00-.331-.912 1.216 1.216 0 00-.91-.371 1.307 1.307 0 00-.928.37 1.247 1.247 0 00-.377.912z" fill="#fff"/></svg>